<svg xmlns="http://www.w3.org/2000/svg" viewBox="0 0 1600 900"><defs><linearGradient id="bg" x1="0" y1="0" x2="1" y2="1"><stop offset="0" stop-color="#11151a"/><stop offset="1" stop-color="#2a3037"/></linearGradient></defs><rect width="1600" height="900" fill="url(#bg)"/><circle cx="1280" cy="170" r="300" fill="#e21b23" opacity=".18"/><path d="M0 680L420 430l240 150 280-230 660 360v190H0Z" fill="#0a0c0f" opacity=".72"/><rect x="110" y="120" width="90" height="90" rx="18" fill="#e21b23"/><path d="M138 191v-52h22c17 0 27 8 27 22s-10 22-27 22h-10v8h-12Zm12-21h7c10 0 15-3 15-9s-5-9-15-9h-7v18Z" fill="#fff"/><text x="230" y="185" fill="#fff" font-family="Georgia,serif" font-size="58" font-weight="700">Pakblog</text><text x="234" y="225" fill="#b7bec6" font-family="Arial,sans-serif" font-size="18" letter-spacing="5">NEWSROOM</text></svg>